<?xml version="1.0" encoding="UTF-8"?>
<svg width="1920px" height="1080px" viewBox="0 0 1920 1080" version="1.1" xmlns="http://www.w3.org/2000/svg" xmlns:xlink="http://www.w3.org/1999/xlink">
    <!-- Generator: Sketch 60.1 (88133) - https://sketch.com -->
    <title>编组 6</title>
    <desc>Created with Sketch.</desc>
    <g id="页面-1" stroke="none" stroke-width="1" fill="none" fill-rule="evenodd">
        <g id="报错">
            <g id="编组-6" transform="translate(0.000000, 0.000000)">
                <polygon id="Fill-2" fill="#C2E7F6" points="0 1080 1920 1080 1920 0 0 0"></polygon>
                <path d="M1363.084,142.738 C1359.095,142.738 1355.416,144.04 1352.421,146.222 C1352.641,144.584 1352.795,142.924 1352.795,141.225 C1352.795,120.666 1336.128,104 1315.568,104 C1298.103,104 1283.486,116.046 1279.473,132.273 C1275.294,129.342 1270.217,127.605 1264.724,127.605 C1250.518,127.605 1239,139.123 1239,153.331 C1239,159.13 1240.942,164.463 1244.181,168.765 L1275.922,168.765 L1285.27,168.765 L1290.587,168.765 L1312.239,168.765 L1327.978,168.765 L1340.55,168.765 L1346.738,168.765 L1364.295,168.765 L1379.43,168.765 C1380.579,166.382 1381.243,163.719 1381.243,160.897 C1381.243,150.87 1373.111,142.738 1363.084,142.738" id="Fill-3" fill="#FFFFFF"></path>
                <path d="M599.701665,275.22438 C593.924692,275.22438 588.596669,277.114105 584.259232,280.281062 C584.577842,277.903667 584.800869,275.494341 584.800869,273.02841 C584.800869,243.189053 560.663287,219 530.887762,219 C505.594497,219 484.425778,236.483579 478.614048,260.035467 C472.561912,255.78141 465.209269,253.260326 457.254164,253.260326 C436.680666,253.260326 420,269.977565 420,290.599074 C420,299.015749 422.812455,306.756072 427.503259,313 L473.471398,313 L487.009413,313 L494.709631,313 L526.066618,313 L548.860246,313 L567.067343,313 L576.028965,313 L601.455467,313 L623.374366,313 C625.038378,309.541311 626,305.676229 626,301.580375 C626,287.027175 614.223027,275.22438 599.701665,275.22438" id="Fill-3备份" fill="#FFFFFF"></path>
                <path d="M1555.466,332.757 C1552.006,332.757 1548.758,333.621 1545.894,335.125 C1541.839,322.299 1529.85,313 1515.683,313 C1498.186,313 1484,327.184 1484,344.683 C1484,345.55 1484.062,346.403 1484.129,347.252 C1484.705,354.395 1487.65,360.854 1492.176,365.872 L1494.459,365.872 L1504.575,365.872 L1517.237,365.872 L1534.659,365.872 L1538.937,365.872 L1539.19,365.872 L1546.457,365.872 L1571.997,365.872 C1574.602,362.41 1576.165,358.12 1576.165,353.454 C1576.165,342.024 1566.897,332.757 1555.466,332.757" id="Fill-9" fill="#FFFFFF"></path>
            </g>
        </g>
    </g>
</svg>