<?xml version="1.0" encoding="UTF-8"?>
<svg width="517px" height="460px" viewBox="0 0 517 460" version="1.1" xmlns="http://www.w3.org/2000/svg" xmlns:xlink="http://www.w3.org/1999/xlink">
    <!-- Generator: Sketch 60.1 (88133) - https://sketch.com -->
    <title>编组 5</title>
    <desc>Created with Sketch.</desc>
    <defs>
        <polygon id="path-1" points="0 0.255443785 289.586409 0.255443785 289.586409 36.365393 0 36.365393"></polygon>
        <polygon id="path-3" points="0 0.231257247 289.586409 0.231257247 289.586409 252.897833 0 252.897833"></polygon>
    </defs>
    <g id="页面-1" stroke="none" stroke-width="1" fill="none" fill-rule="evenodd">
        <g id="报错" transform="translate(-702.000000, -104.000000)">
            <g id="编组-5" transform="translate(702.000000, 104.000000)">
                <g id="编组-3备份-2" transform="translate(0.000000, 54.000000)">
                    <rect id="矩形备份-4" fill="#FFFFFF" x="42" y="379" width="459" height="27" rx="12"></rect>
                    <circle id="椭圆形" fill="#597EF7" opacity="0.0697312128" cx="291.5" cy="177.5" r="177.5"></circle>
                    <g id="2.通用组件/彩色版/折线图表01" transform="translate(0.000000, 72.000000)">
                        <g id="分组-copy-2" transform="translate(0.599414, 0.721929)">
                            <g id="分组" transform="translate(0.000000, 0.168881)">
                                <mask id="mask-2" fill="white">
                                    <use xlink:href="#path-1"></use>
                                </mask>
                                <g id="Clip-2"></g>
                                <path d="M289.586409,36.365393 L-0.000254808677,36.365393 L-0.000254808677,10.4391219 C-0.000254808677,4.81511534 4.56336859,0.255316487 10.1920923,0.255316487 L279.394062,0.255316487 C285.02321,0.255316487 289.586409,4.81511534 289.586409,10.4391219 L289.586409,36.365393 Z" id="Fill-1" fill="#253369" mask="url(#mask-2)"></path>
                            </g>
                            <g id="分组" transform="translate(0.000000, 33.266249)">
                                <mask id="mask-4" fill="white">
                                    <use xlink:href="#path-3"></use>
                                </mask>
                                <g id="Clip-4"></g>
                                <path d="M279.394062,252.897833 L10.1920923,252.897833 C4.56336859,252.897833 -0.000254808677,248.338459 -0.000254808677,242.714028 L-0.000254808677,0.231257247 L289.586409,0.231257247 L289.586409,242.714028 C289.586409,248.338459 285.02321,252.897833 279.394062,252.897833" id="Fill-3" fill="#FFFFFF" mask="url(#mask-4)"></path>
                            </g>
                            <path d="M23.5336198,17.2289195 C23.5336198,20.7584567 20.6695702,23.620106 17.1366479,23.620106 C13.6041503,23.620106 10.7405255,20.7584567 10.7405255,17.2289195 C10.7405255,13.6993823 13.6041503,10.837733 17.1366479,10.837733 C20.6695702,10.837733 23.5336198,13.6993823 23.5336198,17.2289195" id="Fill-5" fill="#FF7946"></path>
                            <path d="M47.4215085,17.2289195 C47.4215085,20.7584567 44.5578837,23.620106 41.0249614,23.620106 C37.4924637,23.620106 34.6288389,20.7584567 34.6288389,17.2289195 C34.6288389,13.6993823 37.4924637,10.837733 41.0249614,10.837733 C44.5578837,10.837733 47.4215085,13.6993823 47.4215085,17.2289195" id="Fill-7" fill="#FFC53D"></path>
                            <path d="M71.309822,17.2289195 C71.309822,20.7584567 68.4461971,23.620106 64.9132748,23.620106 C61.3807772,23.620106 58.5171523,20.7584567 58.5171523,17.2289195 C58.5171523,13.6993823 61.3807772,10.837733 64.9132748,10.837733 C68.4461971,10.837733 71.309822,13.6993823 71.309822,17.2289195" id="Fill-9" fill="#BAE637"></path>
                            <path d="M31.2989596,251.795903 C29.5421641,251.795903 28.1185197,250.374179 28.1185197,248.62064 L28.1185197,64.5458868 C28.1185197,62.7923478 29.5421641,61.3706239 31.2989596,61.3706239 L261.451493,61.3706239 C263.207891,61.3706239 264.631933,62.7923478 264.631933,64.5458868 L264.631933,248.62064 C264.631933,250.374179 263.207891,251.795903 261.451493,251.795903 L31.2989596,251.795903 Z" id="Fill-11" fill="#ADC6FF" opacity="0.247930618"></path>
                            <polyline id="路径" stroke="#FF7946" stroke-width="5.1620155" stroke-linecap="round" stroke-linejoin="round" points="53.5098221 192.043778 109.973811 143.844696 157.969246 215.572717 196.27201 188.737643 243.60734 186.274824"></polyline>
                            <polyline id="路径" stroke="#FFC53D" stroke-width="5.1620155" stroke-linecap="round" stroke-linejoin="round" points="53.5098221 131.716847 111.43189 132.660857 146.931299 108.779487 196.785888 164.08592 238.898875 101.474943"></polyline>
                            <polyline id="路径" stroke="#597EF7" stroke-width="5.1620155" stroke-linecap="round" stroke-linejoin="round" points="50.1123731 149.80688 112.220672 188.55327 165.434274 142.149906 196.914566 151.459948 243.02578 144.134426"></polyline>
                            <path d="M110.162072,85.4686474 L51.9009176,85.4686474 C49.5154838,85.4686474 47.5644986,83.518873 47.5644986,81.1358625 C47.5644986,78.7524277 49.5154838,76.8030776 51.9009176,76.8030776 L110.162072,76.8030776 C112.547081,76.8030776 114.498491,78.7524277 114.498491,81.1358625 C114.498491,83.518873 112.547081,85.4686474 110.162072,85.4686474" id="Fill-1" fill="#CCD7EE"></path>
                            <path d="M76.4770871,105.903599 L54.7941428,105.903599 C52.3993659,105.903599 50.4572991,103.963584 50.4572991,101.570814 C50.4572991,99.1776194 52.3993659,97.2380288 54.7941428,97.2380288 L76.4770871,97.2380288 C78.8722887,97.2380288 80.8135061,99.1776194 80.8135061,101.570814 C80.8135061,103.963584 78.8722887,105.903599 76.4770871,105.903599" id="Fill-3" fill="#CCD7EE"></path>
                            <g id="分组-3" transform="translate(218.710781, 203.676107)" stroke-linecap="round" stroke-linejoin="round" stroke-width="6.10981449">
                                <path d="M29.7276789,15.0637137 C29.7276789,23.3833245 23.0729865,30.1270909 14.8640055,30.1270909 C6.65469243,30.1270909 0,23.3833245 0,15.0637137 C0,6.74410282 6.65469243,0 14.8640055,0 C23.0729865,0 29.7276789,6.74410282 29.7276789,15.0637137 Z" id="Stroke-9" stroke="#CCD7EE"></path>
                                <path d="M28.4536356,8.48650447 C29.2719877,10.3934447 29.7276789,12.514697 29.7276789,14.7493295 C29.7276789,16.5745148 29.4233592,18.3240012 28.8661229,19.9432855" id="Stroke-11" stroke="#597EF7"></path>
                            </g>
                        </g>
                    </g>
                    <g id="2.通用组件/彩色版/关联备份" opacity="0.199102493" transform="translate(350.780488, 286.487324) rotate(-10.000000) translate(-350.780488, -286.487324) translate(304.926829, 248.174648)" fill="#597EF7">
                        <g id="编组" transform="translate(45.872557, 38.586192) rotate(-165.000000) translate(-45.872557, -38.586192) translate(6.323777, 9.994643)">
                            <path d="M9.18917306,8.5891507 C14.0152834,8.5891507 17.9439212,12.4047752 18.0826908,17.1638266 L18.0864841,17.4243296 C18.7015051,33.564949 34.4025448,37.7644552 39.738958,38.727297 L39.535359,38.7234217 C44.4492168,38.7234217 48.43267,42.6790576 48.43267,47.5586007 C48.43267,52.4381438 44.4492168,56.3937796 39.535359,56.3937796 C35.5489585,56.3937796 32.1748922,53.7904271 31.0432395,50.2024182 L31.0087692,50.2407086 C26.5191267,28.4041852 12.8353708,26.4016013 9.22362671,26.2587987 L9.18917306,26.2595086 L9.18917306,26.2595086 C9.04742716,26.2595086 8.90645546,26.2562171 8.76633122,26.2497069 C8.49099526,26.2487345 8.3418101,26.2595086 8.3418101,26.2595086 L8.3418101,26.2595086 L8.38089192,26.2235415 C3.84581727,25.8180081 0.291862004,22.0333144 0.291862004,17.4243296 C0.291862004,12.5447865 4.27531527,8.5891507 9.18917306,8.5891507 Z" id="形状结合"></path>
                            <path d="M75.6950959,4.22512257 C77.2517308,6.18550303 76.938217,9.0476394 74.9949992,10.6179166 C74.1375159,11.3107857 73.1060011,11.636347 72.0872702,11.6154062 C61.6646138,12.950721 59.9678014,19.4163114 59.6967508,21.2060938 L59.6934553,21.2356629 L59.6934553,21.2356629 C59.6851563,21.3114292 59.6750573,21.3865542 59.6632061,21.4609993 C59.6522863,21.5629389 59.6481377,21.6289957 59.6467969,21.6543994 L59.646239,21.6661448 L59.6305518,21.6427018 C59.1731761,23.9247132 57.0556101,25.5171845 54.7176068,25.2565482 C52.2428244,24.9807819 50.4584663,22.7332863 50.7318183,20.2367524 C50.9974625,17.8116511 53.107287,16.0434389 55.4961963,16.1972733 L55.7076564,16.2158353 C63.9226671,16.8154916 66.927449,9.08556629 67.7148962,6.42426565 C67.8702664,5.32042231 68.4271966,4.27130972 69.3583746,3.51884256 C71.3015924,1.94856541 74.1386713,2.26484818 75.6950959,4.22512257 Z" id="形状结合" transform="translate(63.694546, 13.902406) rotate(11.000000) translate(-63.694546, -13.902406) "></path>
                        </g>
                    </g>
                    <g id="编组-2" transform="translate(339.000000, 0.000000)">
                        <path d="M55.117721,176.004743 L53.3526956,176.004743 C50.9262859,176.004743 48.9401321,174.077798 48.9401321,171.721565 L48.9401321,137.458081 C48.9401321,135.101847 50.9262859,133.174902 53.3526956,133.174902 L55.117721,133.174902 C57.5441306,133.174902 59.5302845,135.101847 59.5302845,137.458081 L59.5302845,171.721565 C59.5302845,174.077798 57.5441306,176.004743 55.117721,176.004743" id="Fill-1" fill="#393D65"></path>
                        <path d="M107.556386,177.284258 L107.556386,177.284258 C107.556386,180.123199 105.186008,182.424072 102.261309,182.424072 L6.95494051,182.424072 C4.03024139,182.424072 1.65986431,180.123199 1.65986431,177.284258 C1.65986431,174.446288 4.03024139,172.144444 6.95494051,172.144444 L102.261309,172.144444 C105.186008,172.144444 107.556386,174.446288 107.556386,177.284258" id="Fill-3" fill="#393D65"></path>
                        <polygon id="Clip-6" points="36.5324237 168.602226 71.9389934 168.602226 71.9389934 185.966872 36.5324237 185.966872"></polygon>
                        <path d="M69.2914553,185.967066 L39.1789612,185.967066 C37.7231155,185.967066 36.5324237,184.810317 36.5324237,183.397159 L36.5324237,171.171162 C36.5324237,169.758004 37.7231155,168.602226 39.1789612,168.602226 L69.2914553,168.602226 C70.7473011,168.602226 71.9389934,169.758004 71.9389934,171.171162 L71.9389934,183.397159 C71.9389934,184.810317 70.7473011,185.967066 69.2914553,185.967066" id="Fill-5" fill="#ADC6FF"></path>
                        <line x1="40.9292781" y1="171.134352" x2="40.9292781" y2="183.435135" id="Stroke-7" stroke="#597EF7" stroke-width="1.78026146" stroke-linecap="round" stroke-linejoin="round"></line>
                        <line x1="67.1012829" y1="171.134352" x2="67.1012829" y2="183.435135" id="Stroke-9" stroke="#597EF7" stroke-width="1.78026146" stroke-linecap="round" stroke-linejoin="round"></line>
                        <polygon id="Clip-12" points="0.000300174388 185.966872 109.21575 185.966872 109.21575 38.2904592 0.000300174388 38.2904592"></polygon>
                        <polygon id="Fill-11" fill="#393D65" points="4.96418397 153.013594 104.250865 153.013594 104.250865 40.4359333 4.96418397 40.4359333"></polygon>
                        <path d="M4.51862512,153.984836 C2.03318119,153.984836 4.12114787e-13,152.011272 4.12114787e-13,149.599677 L4.12114787e-13,123.675279 C4.12114787e-13,121.263685 2.03318119,119.29012 4.51862512,119.29012 L104.697825,119.29012 C107.182268,119.29012 109.21645,121.263685 109.21645,123.675279 L109.21645,149.599677 C109.21645,152.011272 107.182268,153.984836 104.697825,153.984836 L4.51862512,153.984836 Z" id="Fill-13" fill="#ADC6FF"></path>
                        <path d="M4.51862512,72.9857576 C2.03318119,72.9857576 4.12114787e-13,71.0121933 4.12114787e-13,68.5996276 L4.12114787e-13,42.6762007 C4.12114787e-13,40.2646062 2.03318119,38.2900707 4.51862512,38.2900707 L104.697825,38.2900707 C107.182268,38.2900707 109.21645,40.2646062 109.21645,42.6762007 L109.21645,68.5996276 C109.21645,71.0121933 107.182268,72.9857576 104.697825,72.9857576 L4.51862512,72.9857576 Z" id="Fill-14" fill="#ADC6FF"></path>
                        <path d="M12.6594546,58.9274145 L12.6594546,58.9274145 C10.7883676,58.9274145 9.27148632,57.45404 9.27148632,55.637817 C9.27148632,53.821594 10.7883676,52.3491907 12.6594546,52.3491907 C14.5315422,52.3491907 16.0484234,53.821594 16.0484234,55.637817 C16.0484234,57.45404 14.5315422,58.9274145 12.6594546,58.9274145" id="Fill-15" fill="#FFFFFF"></path>
                        <path d="M19.7150536,55.637817 C19.7150536,53.821594 21.2319348,52.3491907 23.1040224,52.3491907 C24.9751094,52.3491907 26.4929913,53.821594 26.4929913,55.637817 C26.4929913,57.45404 24.9751094,58.9274145 23.1040224,58.9274145 C21.2319348,58.9274145 19.7150536,57.45404 19.7150536,55.637817 Z" id="Fill-16" fill="#FFFFFF"></path>
                        <path d="M33.5485902,58.9274145 L33.5485902,58.9274145 C31.6765026,58.9274145 30.1596214,57.45404 30.1596214,55.637817 C30.1596214,53.821594 31.6765026,52.3491907 33.5485902,52.3491907 C35.4196773,52.3491907 36.9365585,53.821594 36.9365585,55.637817 C36.9365585,57.45404 35.4196773,58.9274145 33.5485902,58.9274145" id="Fill-17" fill="#FFFFFF"></path>
                        <path d="M69.5123836,58.9274145 C68.9960837,58.9274145 68.5778407,58.5214352 68.5778407,58.0202742 L68.5778407,53.256331 C68.5778407,52.75517 68.9960837,52.3491907 69.5123836,52.3491907 L101.528984,52.3491907 C102.045284,52.3491907 102.463527,52.75517 102.463527,53.256331 L102.463527,58.0202742 C102.463527,58.5214352 102.045284,58.9274145 101.528984,58.9274145 L69.5123836,58.9274145 Z" id="Fill-18" fill="#597EF7"></path>
                        <path d="M4.51862512,113.485297 C2.03318119,113.485297 4.12114787e-13,111.511732 4.12114787e-13,109.099167 L4.12114787e-13,83.1757399 C4.12114787e-13,80.7641454 2.03318119,78.7896099 4.51862512,78.7896099 L104.697825,78.7896099 C107.182268,78.7896099 109.21645,80.7641454 109.21645,83.1757399 L109.21645,109.099167 C109.21645,111.511732 107.182268,113.485297 104.697825,113.485297 L4.51862512,113.485297 Z" id="Fill-19" fill="#ADC6FF"></path>
                        <path d="M12.6594546,100.602157 L12.6594546,100.602157 C10.7883676,100.602157 9.27148632,99.1297535 9.27148632,97.3125593 C9.27148632,95.4963363 10.7883676,94.023933 12.6594546,94.023933 C14.5315422,94.023933 16.0484234,95.4963363 16.0484234,97.3125593 C16.0484234,99.1297535 14.5315422,100.602157 12.6594546,100.602157" id="Fill-20" fill="#FF7A46"></path>
                        <path d="M23.1040224,100.602157 L23.1040224,100.602157 C21.2319348,100.602157 19.7150536,99.1297535 19.7150536,97.3125593 C19.7150536,95.4963363 21.2319348,94.023933 23.1040224,94.023933 C24.9751094,94.023933 26.4929913,95.4963363 26.4929913,97.3125593 C26.4929913,99.1297535 24.9751094,100.602157 23.1040224,100.602157" id="Fill-21" fill="#393D65"></path>
                        <path d="M33.5485902,100.602157 L33.5485902,100.602157 C31.6765026,100.602157 30.1596214,99.1297535 30.1596214,97.3125593 C30.1596214,95.4963363 31.6765026,94.023933 33.5485902,94.023933 C35.4196773,94.023933 36.9365585,95.4963363 36.9365585,97.3125593 C36.9365585,99.1297535 35.4196773,100.602157 33.5485902,100.602157" id="Fill-22" fill="#393D65"></path>
                        <path d="M101.334071,100.602157 L69.7076971,100.602157 C69.0833344,100.602157 68.5780408,100.111679 68.5780408,99.5056243 L68.5780408,95.1194943 C68.5780408,94.5144104 69.0833344,94.023933 69.7076971,94.023933 L101.334071,94.023933 C101.958433,94.023933 102.463727,94.5144104 102.463727,95.1194943 L102.463727,99.5056243 C102.463727,100.111679 101.958433,100.602157 101.334071,100.602157" id="Fill-23" fill="#FF7A46"></path>
                        <path d="M9.27148632,136.879706 C9.27148632,135.063483 10.7883676,133.59108 12.6594546,133.59108 C14.5315422,133.59108 16.0484234,135.063483 16.0484234,136.879706 C16.0484234,138.695929 14.5315422,140.169303 12.6594546,140.169303 C10.7883676,140.169303 9.27148632,138.695929 9.27148632,136.879706 Z" id="Fill-24" fill="#FFFFFF"></path>
                        <path d="M23.1040224,140.169303 L23.1040224,140.169303 C21.2319348,140.169303 19.7150536,138.695929 19.7150536,136.879706 C19.7150536,135.063483 21.2319348,133.59108 23.1040224,133.59108 C24.9751094,133.59108 26.4929913,135.063483 26.4929913,136.879706 C26.4929913,138.695929 24.9751094,140.169303 23.1040224,140.169303" id="Fill-25" fill="#FFFFFF"></path>
                        <path d="M33.5485902,140.169303 L33.5485902,140.169303 C31.6765026,140.169303 30.1596214,138.695929 30.1596214,136.879706 C30.1596214,135.063483 31.6765026,133.59108 33.5485902,133.59108 C35.4196773,133.59108 36.9365585,135.063483 36.9365585,136.879706 C36.9365585,138.695929 35.4196773,140.169303 33.5485902,140.169303" id="Fill-26" fill="#FFFFFF"></path>
                        <path d="M101.334071,140.169303 L69.7076971,140.169303 C69.0833344,140.169303 68.5780408,139.677855 68.5780408,139.072771 L68.5780408,134.686641 C68.5780408,134.081557 69.0833344,133.59108 69.7076971,133.59108 L101.334071,133.59108 C101.958433,133.59108 102.463727,134.081557 102.463727,134.686641 L102.463727,139.072771 C102.463727,139.677855 101.958433,140.169303 101.334071,140.169303" id="Fill-27" fill="#597EF7"></path>
                        <polygon id="Clip-2" points="77.3069661 1.111713e-05 177.723914 1.111713e-05 177.723914 99.6076099 77.3069661 99.6076099"></polygon>
                        <path d="M127.515446,3.55271368e-14 C99.7860198,3.55271368e-14 77.3069661,22.297875 77.3069661,49.8038049 C77.3069661,77.3096238 99.7860198,99.6076099 127.515446,99.6076099 C155.244872,99.6076099 177.723926,77.3096238 177.723926,49.8038049 C177.723926,22.297875 155.244872,3.55271368e-14 127.515446,3.55271368e-14" id="Fill-1" fill="#FFC540"></path>
                        <path d="M129.565801,64.0334635 L127.772641,64.0334635 C126.28712,64.0334635 125.082901,62.8389504 125.082901,61.3654025 L125.082901,27.5699635 C125.082901,26.0964156 126.28712,24.9019025 127.772641,24.9019025 L129.565801,24.9019025 C131.051322,24.9019025 132.255541,26.0964156 132.255541,27.5699635 L132.255541,61.3654025 C132.255541,62.8389504 131.051322,64.0334635 129.565801,64.0334635" id="Fill-3" fill="#FFFFFF"></path>
                        <path d="M129.565801,74.9706014 L127.772641,74.9706014 C126.28712,74.9706014 125.082901,73.7760883 125.082901,72.3025404 L125.082901,70.5238331 C125.082901,69.0502853 126.28712,67.8557721 127.772641,67.8557721 L129.565801,67.8557721 C131.051322,67.8557721 132.255541,69.0502853 132.255541,70.5238331 L132.255541,72.3025404 C132.255541,73.7760883 131.051322,74.9706014 129.565801,74.9706014" id="Fill-5" fill="#FFFFFF"></path>
                    </g>
                </g>
                <g id="编组-2" transform="translate(54.000000, 0.000000)">
                    <path d="M150,81.2048528 L99.012904,55 C98.9471141,56.0001852 99.1444836,60.4010002 99.3422185,61.8008891 L144.45063,85 C145.156043,84.7584738 148.585519,82.1313206 150,81.2048528" id="Fill-11" fill="#B6322F"></path>
                    <path d="M30.3362069,64.125 L43.8685345,64.125 L43.8685345,44.4615942 L30.3362069,64.125 Z M45.1852331,0 L66.5222861,0 C67.8907567,0 69,1.0942029 69,2.44565217 L69,105.555072 C69,106.905435 67.8907567,108 66.5222861,108 L46.3462484,108 C44.9777778,108 43.8685345,106.905435 43.8685345,105.555072 L43.8685345,88.9235507 L2.47771392,88.9235507 C1.10961047,88.9235507 0,87.8293478 0,86.4789855 L0,64.8724638 C0,64.3855072 0.147972542,63.9083333 0.424090038,63.5050725 L43.1319764,1.07753623 C43.592417,0.403623188 44.3620211,0 45.1852331,0 L45.1852331,0 Z" id="Fill-13" fill="#E8453C"></path>
                    <path d="M216.336207,64.125 L229.868167,64.125 L229.868167,44.4615942 L216.336207,64.125 Z M231.399665,0 L252.118024,0 C253.709738,0 255,1.27318841 255,2.84275362 L255,105.156159 C255,106.726449 253.709738,108 252.118024,108 L232.749777,108 C231.158062,108 229.868167,106.726449 229.868167,105.156159 L229.868167,88.9235507 L188.881242,88.9235507 C187.289527,88.9235507 186,87.6507246 186,86.0800725 L186,64.9945652 C186,64.4275362 186.171105,63.8735507 186.492752,63.4036232 L229.011175,1.25253623 C229.546887,0.469202899 230.442433,0 231.399665,0 L231.399665,0 Z" id="Fill-15" fill="#E8453C"></path>
                    <path d="M65.9955258,3.95149479 L65.9955258,3.93192084 C65.9955258,2.9273712 65.1760068,2.11080529 64.1614884,2.10600414 L45.5079218,2 C45.2648252,1.9985321 45.0489464,2.17174305 45.0071875,2.41697134 C44.9605815,2.68879066 45.1455139,2.94731446 45.4203026,2.99384875 L60.8767008,5.58684252 C61.6678835,5.71905898 62.2815907,6.34394795 62.3945635,7.13059896 L65.1961405,26.6565327 C65.2241041,26.8504255 65.3926312,27 65.5958332,27 C65.8187961,27 66,26.8208799 66,26.6003961 L65.9955258,3.95149479 Z" id="Fill-17" fill="#F17F7E"></path>
                    <path d="M252.996271,3.95149479 L252.996271,3.93192084 C252.996271,2.9273712 252.176738,2.11080529 251.162201,2.10600414 L232.508303,2 C232.264829,1.9985321 232.04932,2.17174305 232.007187,2.41697134 C231.96058,2.68879066 232.145516,2.94731446 232.420683,2.99384875 L247.876983,5.58684252 C248.669298,5.71905898 249.28227,6.34394795 249.395618,7.13059896 L252.196872,26.6565327 C252.224836,26.8504255 252.392993,27 252.596572,27 C252.819911,27 253,26.8208799 253,26.6003961 L252.996271,3.95149479 Z" id="Fill-19" fill="#F17F7E"></path>
                    <path d="M129,83.133515 C133.019955,83.133515 136.798313,82.3749319 140.329987,80.8530427 C143.860935,79.3333333 146.950833,77.2479564 149.599316,74.5998183 C152.2478,71.951317 154.330983,68.8610354 155.852862,65.3297003 C157.371835,61.7983651 158.133319,58.0236149 158.133319,54.0003633 C158.133319,49.9782016 157.371835,46.2019982 155.852862,42.6702997 C154.330983,39.1389646 152.2478,36.0490463 149.599316,33.400545 C146.950833,30.7520436 143.860935,28.6692098 140.329987,27.1469573 C136.798313,25.6283379 133.019955,24.866485 129,24.866485 C124.976775,24.866485 121.201687,25.6283379 117.670376,27.1469573 C114.139065,28.6692098 111.049167,30.7520436 108.400684,33.400545 C105.7522,36.0490463 103.666474,39.1389646 102.147501,42.6702997 C100.624896,46.2019982 99.8663177,49.9782016 99.8663177,54.0003633 C99.8663177,58.0236149 100.624896,61.7983651 102.147501,65.3297003 C103.666474,68.8610354 105.7522,71.951317 108.400684,74.5998183 C111.049167,77.2479564 114.139065,79.3333333 117.670376,80.8530427 C121.201687,82.3749319 124.976775,83.133515 129,83.133515 M128.926613,0 C136.370704,0 143.373382,1.42343324 149.936462,4.26702997 C156.500996,7.11353315 162.232111,10.9620345 167.128717,15.8176203 C172.025687,20.6732062 175.895597,26.3887375 178.737358,32.9594914 C181.579119,39.5320618 183,46.5467757 183,54.0003633 C183,61.4557675 181.579119,68.4704814 178.737358,75.0412352 C175.895597,81.6138056 172.025687,87.3271571 167.128717,92.182743 C162.232111,97.0379655 156.500996,100.88901 149.936462,103.73297 C143.373382,106.57911 136.370704,108 128.926613,108 C121.482158,108 114.47621,106.57911 107.91313,103.73297 C101.34896,100.88901 95.6432762,97.0379655 90.7942625,92.182743 C85.9456121,87.3271571 82.1018596,81.6138056 79.2600985,75.0412352 C76.4187007,68.4704814 75,61.4557675 75,54.0003633 C75,46.5467757 76.4187007,39.5320618 79.2600985,32.9594914 C82.1018596,26.3887375 85.9456121,20.6732062 90.7942625,15.8176203 C95.6432762,10.9620345 101.34896,7.11353315 107.91313,4.26702997 C114.47621,1.42343324 121.482158,0 128.926613,0" id="Fill-21" fill="#E8453C"></path>
                    <polygon id="Fill-23" fill="#E8453C" points="161.727044 87 82 46.3227719 95.2722297 20 175 60.6783236"></polygon>
                    <path d="M177.993696,41.6321155 C177.364219,38.9924009 176.546043,36.4137907 175.493433,33.9092467 C172.840483,27.6006694 169.227111,22.1138552 164.65584,17.4517666 C160.083849,12.790789 154.733654,9.09526258 148.605255,6.36259504 C145.062466,4.78461748 141.379593,3.66881218 137.560597,3.00814286 C136.983697,2.90815367 136.76907,3.75806179 137.317521,3.96581711 C149.377697,8.54643302 165.304043,18.3405594 175.340745,36.7622716 C176.271277,38.4706054 177.04984,40.1915305 177.712088,41.9350457 C177.832005,42.0616987 178.03871,42.0242953 177.993696,41.6321155" id="Fill-25" fill="#F17F7E"></path>
                    <polygon id="Fill-27" fill="#B6322F" points="42 64 47 64 47 38 42 44.3336582"></polygon>
                    <path d="M48.2306034,101.250725 L48.2306034,84.6195652 L6.83978289,84.6195652 C5.47167944,84.6195652 4.36206897,83.525 4.36206897,82.1746377 L4.36206897,60.5688406 C4.36206897,60.0804348 4.51004151,59.6043478 4.786159,59.2 L45.2858397,0 L45.1856003,0 C44.3620211,0 43.592417,0.403623188 43.1319764,1.07753623 L0.424090038,63.5043478 C0.147972542,63.9086957 0,64.3847826 0,64.8731884 L0,86.4789855 C0,87.8293478 1.10961047,88.923913 2.47771392,88.923913 L43.8685345,88.923913 L43.8685345,105.555072 C43.8685345,106.905435 44.978145,108 46.3462484,108 L66.5222861,108 C67.8907567,108 69,106.905435 69,105.555072 L69,103.695652 L50.7083174,103.695652 C49.3398467,103.695652 48.2306034,102.601449 48.2306034,101.250725" id="Fill-29" fill="#B6322F"></path>
                    <polygon id="Fill-31" fill="#B6322F" points="230 64 235 64 235 38 230 44.2970522"></polygon>
                    <path d="M234.23086,100.850804 L234.23086,84.6162704 L193.242982,84.6162704 C191.651626,84.6162704 190.361725,83.343265 190.361725,81.7723914 L190.361725,60.6839128 C190.361725,60.1168039 190.532831,59.5627403 190.85448,59.0927466 L231.275065,0 C230.365929,0.0402230588 229.523986,0.489561734 229.011037,1.23749321 L186.492388,63.397701 C186.170738,63.8673324 186,64.4217583 186,64.9888672 L186,86.0769835 C186,87.647857 187.289167,88.9212248 188.88089,88.9212248 L229.868401,88.9212248 L229.868401,105.156121 C229.868401,106.726632 231.158302,108 232.750025,108 L252.118375,108 C253.710098,108 255,106.726632 255,105.156121 L255,103.695408 L237.112117,103.695408 C235.520394,103.695408 234.23086,102.421678 234.23086,100.850804" id="Fill-33" fill="#B6322F"></path>
                    <path d="M133.035655,103.697344 C125.617974,103.697344 118.636884,102.280872 112.097089,99.4435814 C105.555847,96.6084641 99.8704065,92.7693938 95.0389589,87.9289055 C90.2071494,83.0887795 86.3770344,77.3931926 83.5453558,70.8406963 C80.7140392,64.290373 79.300372,57.2978323 79.300372,49.8652472 C79.300372,42.4348352 80.7140392,35.4422945 83.5453558,28.8897982 C85.9599935,23.3035886 89.1084349,18.34322 92.9772855,14 C92.2137966,14.6816161 91.4633402,15.3777192 90.7382249,16.103883 C85.9064154,20.9447334 82.0763004,26.6421311 79.2446218,33.1924544 C76.4133052,39.7449507 75,46.7374914 75,54.1679035 C75,61.6004886 76.4133052,68.5930293 79.2446218,75.1433525 C82.0763004,81.6958488 85.9064154,87.3914357 90.7382249,92.2319239 C95.5696724,97.07205 101.255112,100.91112 107.796355,103.746238 C114.33615,106.583528 121.316878,108 128.734921,108 C136.152601,108 143.130795,106.583528 149.670228,103.746238 C156.21147,100.91112 161.922252,97.07205 166.801485,92.2319239 C167.562078,91.476786 168.289365,90.6937605 169,89.8976967 C164.603694,93.8193433 159.596669,97.0046852 153.971324,99.4435814 C147.431529,102.280872 140.453335,103.697344 133.035655,103.697344" id="Fill-35" fill="#B6322F"></path>
                    <path d="M159.427621,38.5137436 C157.889942,35.0399432 155.785131,32.0003679 153.109151,29.3950176 C150.433171,26.7896673 147.311194,24.7407684 143.743587,23.2433174 C140.175246,21.7494403 136.358028,21 132.295971,21 C128.230977,21 124.416695,21.7494403 120.848722,23.2433174 C119.261487,23.9102013 117.768591,24.6907342 116.35792,25.5752667 L112,29.7645556 C118.541285,25.7117885 124.672914,25.245756 127.935114,25.245756 C131.997171,25.245756 135.814389,25.9951963 139.38273,27.4890734 C142.950337,28.9865244 146.072314,31.0354233 148.748294,33.6407736 C151.424274,36.2461239 153.529085,39.2856993 155.066765,42.7594997 C155.412183,43.5418195 157.029517,47.230052 157.305191,52.1873653 L163,55 C162.282367,46.9738056 160.739916,41.4843433 159.427621,38.5137436" id="Fill-37" fill="#B6322F"></path>
                    <text id="error" transform="translate(132.094595, 56.872340) rotate(28.000000) translate(-132.094595, -56.872340) " font-family="Astrolab" font-size="8" font-weight="normal" letter-spacing="0.0223571331" fill="#FFFFFF">
                        <tspan x="105.675676" y="60.3723404">error</tspan>
                    </text>
                </g>
            </g>
        </g>
    </g>
</svg>