<?xml version="1.0" encoding="UTF-8"?>
<svg width="1920px" height="1080px" viewBox="0 0 1920 1080" version="1.1" xmlns="http://www.w3.org/2000/svg" xmlns:xlink="http://www.w3.org/1999/xlink">
    <!-- Generator: Sketch 55.2 (78181) - https://sketchapp.com -->
    <title>形状结合</title>
    <desc>Created with Sketch.</desc>
    <defs>
        <linearGradient x1="52.7365087%" y1="100%" x2="52.7365087%" y2="0%" id="linearGradient-1">
            <stop stop-color="#E8F7FC" offset="0%"></stop>
            <stop stop-color="#CDEBF8" offset="100%"></stop>
        </linearGradient>
        <rect id="path-2" x="0" y="0" width="1920" height="1080"></rect>
        <linearGradient x1="50%" y1="0%" x2="50%" y2="100%" id="linearGradient-4">
            <stop stop-color="#FFFFFF" stop-opacity="0.89" offset="0.754856419%"></stop>
            <stop stop-color="#E8F5FB" offset="100%"></stop>
        </linearGradient>
    </defs>
    <g id="页面-1" stroke="none" stroke-width="1" fill="none" fill-rule="evenodd">
        <g id="500备份">
            <g id="编组-11" transform="translate(0.000000, -8.000000)">
                <g id="形状结合" transform="translate(0.000000, 8.000000)">
                    <mask id="mask-3" fill="white">
                        <use xlink:href="#path-2"></use>
                    </mask>
                    <use id="蒙版" fill="url(#linearGradient-1)" xlink:href="#path-2"></use>
                    <path d="M1104.8838,924.11536 C1130.64046,913.731154 1158.88204,908 1188.5,908 C1250.69335,908 1306.81773,933.270844 1346.60908,973.83034 C1365.30479,874.933166 1454.40453,800 1561.5,800 C1627.81472,800 1687.22947,828.731066 1727.30149,874.092123 C1730.21733,873.346624 1733.15664,872.657258 1736.11811,872.025288 C1733.43313,862.458878 1732,852.391817 1732,842 C1732,779.039539 1784.60654,728 1849.5,728 C1914.39346,728 1967,779.039539 1967,842 C1967,873.419529 1953.89903,901.87031 1932.70796,922.490747 C1977.71428,961.929778 2006,1019.00836 2006,1082.5 C2006,1201.51736 1906.60721,1298 1784,1298 C1714.85611,1298 1653.09523,1267.3151 1612.38033,1219.20821 C1596.05464,1222.99505 1579.01807,1225 1561.5,1225 C1499.30665,1225 1443.18227,1199.72916 1403.39092,1159.16966 C1384.69521,1258.06683 1295.59548,1333 1188.5,1333 C1092.23971,1333 1010.518,1272.46227 981.391287,1188.3982 C943.285321,1253.83113 870.956337,1298 788,1298 C732.395443,1298 681.565594,1278.1556 642.616278,1245.36459 C611.557437,1328.00149 529.876455,1387 434,1387 C311.392786,1387 212,1290.51736 212,1171.5 C212,1165.4686 212.255253,1159.49506 212.755845,1153.58903 C188.184875,1162.89416 161.45554,1168 133.5,1168 C12.8257822,1168 -85,1072.86051 -85,955.5 C-85,838.139491 12.8257822,743 133.5,743 C227.025076,743 306.826061,800.146282 337.999306,880.493652 C354.528208,871.883845 373.426252,867 393.5,867 C415.939733,867 436.910281,873.102957 454.744525,883.691409 C470.065523,838.013855 514.308994,805 566.5,805 C622.39422,805 669.173059,842.865065 681.072447,893.598567 C712.788989,876.645311 749.234128,867 788,867 C835.645716,867 879.785741,881.570177 915.949585,906.370935 C922.497153,861.502651 962.110414,827 1010,827 C1062.46705,827 1105,868.413661 1105,919.5 C1105,921.047624 1104.96097,922.586372 1104.8838,924.11536 Z M1000.84862,1011.57635 C999.749012,1011.47402 998.654878,1011.35343 997.566536,1011.21491 C998.006625,1012.43412 998.435743,1013.65833 998.853774,1014.88744 C999.508754,1013.77741 1000.17374,1012.67367 1000.84862,1011.57635 Z" fill="url(#linearGradient-4)" opacity="0.811476935" mask="url(#mask-3)"></path>
                    <g id="编组" mask="url(#mask-3)">
                        <g transform="translate(1202.000000, 335.000000)">
                            <path d="M101.186273,44 C101.711341,42.5988637 102,41.1003933 102,39.5404696 C102,32.0772582 95.4875991,25.9816811 87.2901311,25.588578 C87.2901311,25.5816397 87.2903297,25.5747014 87.2903297,25.5675649 C87.2903297,11.446974 74.5498159,0 58.8335158,0 C43.1170169,0 30.3765031,11.446974 30.3765031,25.5675649 C30.3765031,26.9391639 30.4980854,28.2849921 30.7295289,29.5981113 C27.667721,30.0245183 24.952383,31.4111832 22.9643535,33.4102011 C20.5509846,30.9837851 17.0660226,29.4593457 13.1904875,29.4593457 C5.9056814,29.4593457 0,34.8440464 0,41.48636 C0,42.3486892 0.101517247,43.1890141 0.290645268,44 L101.186273,44 Z" id="Fill-3" stroke="none" fill="#F9F9F9" fill-rule="evenodd"></path>
                            <path d="M101.186273,44 C101.711341,42.5988637 102,41.1003933 102,39.5404696 C102,32.0772582 95.4875991,25.9816811 87.2901311,25.588578 C87.2901311,25.5816397 87.2903297,25.5747014 87.2903297,25.5675649 C87.2903297,11.446974 74.5498159,0 58.8335158,0 C43.1170169,0 30.3765031,11.446974 30.3765031,25.5675649 C30.3765031,26.9391639 30.4980854,28.2849921 30.7295289,29.5981113 C27.667721,30.0245183 24.952383,31.4111832 22.9643535,33.4102011 C20.5509846,30.9837851 17.0660226,29.4593457 13.1904875,29.4593457 C5.9056814,29.4593457 0,34.8440464 0,41.48636 C0,42.3486892 0.101517247,43.1890141 0.290645268,44 L101.186273,44 Z" id="Stroke-5" stroke="#EBEBEB" stroke-width="1" fill="none"></path>
                        </g>
                    </g>
                    <g id="编组" mask="url(#mask-3)">
                        <g transform="translate(445.500000, 179.000000) scale(-1, 1) translate(-445.500000, -179.000000) translate(356.000000, 134.000000)">
                            <path d="M177.571988,90 C178.493432,87.1340395 179,84.0689863 179,80.8782332 C179,65.6125736 167.571375,53.1443478 153.185622,52.3402731 C153.185622,52.3260812 153.185971,52.3118892 153.185971,52.2972918 C153.185971,23.4142649 130.827618,0 103.247052,0 C75.6661375,0 53.3077849,23.4142649 53.3077849,52.2972918 C53.3077849,55.1028352 53.5211499,57.8556657 53.9273104,60.5415914 C48.5541379,61.4137874 43.7889858,64.2501476 40.3001889,68.3390477 C36.0649631,63.3759242 29.9491966,60.2577526 23.1480124,60.2577526 C10.3638919,60.2577526 0,71.271913 0,84.8584636 C0,86.6223187 0.178152815,88.3411652 0.510053951,90 L177.571988,90 Z" id="Fill-3" stroke="none" fill="#F9F9F9" fill-rule="evenodd"></path>
                            <path d="M177.571988,90 C178.493432,87.1340395 179,84.0689863 179,80.8782332 C179,65.6125736 167.571375,53.1443478 153.185622,52.3402731 C153.185622,52.3260812 153.185971,52.3118892 153.185971,52.2972918 C153.185971,23.4142649 130.827618,0 103.247052,0 C75.6661375,0 53.3077849,23.4142649 53.3077849,52.2972918 C53.3077849,55.1028352 53.5211499,57.8556657 53.9273104,60.5415914 C48.5541379,61.4137874 43.7889858,64.2501476 40.3001889,68.3390477 C36.0649631,63.3759242 29.9491966,60.2577526 23.1480124,60.2577526 C10.3638919,60.2577526 0,71.271913 0,84.8584636 C0,86.6223187 0.178152815,88.3411652 0.510053951,90 L177.571988,90 Z" id="Stroke-5" stroke="#EBEBEB" stroke-width="1" fill="none"></path>
                        </g>
                    </g>
                </g>
            </g>
        </g>
    </g>
</svg>